Coordinates
version=1
nRows=8
nColumns=40
inDegrees=yes

Units are S.I. units (second, meters, Newtons, ...)
Angles are in degrees.

endheader
time	pelvis_tilt	pelvis_list	pelvis_rotation	pelvis_tx	pelvis_ty	pelvis_tz	hip_flexion_r	hip_adduction_r	hip_rotation_r	knee_angle_r	knee_angle_r_beta	ankle_angle_r	subtalar_angle_r	mtp_angle_r	hip_flexion_l	hip_adduction_l	hip_rotation_l	knee_angle_l	knee_angle_l_beta	ankle_angle_l	subtalar_angle_l	mtp_angle_l	lumbar_extension	lumbar_bending	lumbar_rotation	arm_flex_r	arm_add_r	arm_rot_r	elbow_flex_r	pro_sup_r	wrist_flex_r	wrist_dev_r	arm_flex_l	arm_add_l	arm_rot_l	elbow_flex_l	pro_sup_l	wrist_flex_l	wrist_dev_l
      4.04000000	     -4.59425987	     -4.08750591	     -5.19220261	      0.90628128	      0.93186062	      0.48080289	     30.97130146	     -5.96687808	     -6.69395754	     68.95457108	     68.95457108	      3.82359572	    -16.78804882	      4.12913519	     15.80610650	     -6.06063185	     -9.37573665	     21.53322608	     21.53322608	     11.67116968	    -12.44322454	     -1.32179176	    -11.31125786	      4.86458518	      1.03936863	      0.27560766	    -13.34469930	     -3.81630699	     44.73199920	     44.01484974	      0.00000000	      0.00000000	      9.54955920	    -14.83887385	     -2.98258929	     54.48867819	     44.66338456	      0.00000000	      0.00000000
      4.05185714	     -4.57472585	     -4.02039616	     -5.51213647	      0.90548182	      0.93260132	      0.48023405	     32.03043580	     -5.88228280	     -6.75201631	     67.03706366	     67.03706366	      3.85452526	    -16.53521832	      3.95794690	     14.70553242	     -5.84288656	     -9.66491137	     20.66768354	     20.66768354	     11.87271757	    -12.36680027	     -1.37317037	    -11.47628297	      4.96661391	      1.77320636	     -1.82896040	    -13.71348541	     -3.67347450	     42.64779843	     44.10124582	      0.00000000	      0.00000000	     10.88967172	    -14.90121805	     -3.25235981	     56.46675068	     44.75577906	      0.00000000	      0.00000000
      4.06371429	     -4.57297287	     -3.98363516	     -5.81636834	      0.90468268	      0.93312541	      0.47980805	     32.90086819	     -5.72995984	     -6.86503862	     64.78357746	     64.78357746	      3.38743576	    -16.44008607	      2.55589999	     13.65277157	     -5.69649358	    -10.07338345	     19.82060293	     19.82060293	     11.72944200	    -12.27747706	     -2.39044323	    -11.60035709	      5.02887181	      1.41396927	     -2.10589820	    -13.47944908	     -4.00380177	     37.52890547	     44.43725309	      0.00000000	      0.00000000	     10.71917203	    -15.82597990	     -3.57479862	     60.68644757	     45.02758328	      0.00000000	      0.00000000
      4.07557143	     -4.52746827	     -3.97337993	     -6.08087069	      0.90393867	      0.93363020	      0.47941902	     33.54648171	     -5.52659144	     -7.02731835	     62.25787413	     62.25787413	      3.09958357	    -16.15178506	      2.12592534	     12.59736852	     -5.57332316	    -10.46334902	     19.04808432	     19.04808432	     11.82921553	    -11.95913447	     -2.95291790	    -11.77076234	      5.12597382	      1.42891474	     -2.97973754	    -13.43043301	     -4.13336127	     33.84508335	     44.69229582	      0.00000000	      0.00000000	     11.21026105	    -16.23490813	     -4.46799160	     63.81685873	     45.32390637	      0.00000000	      0.00000000
      4.08742857	     -4.54278094	     -3.93345255	     -6.33775710	      0.90316993	      0.93389365	      0.47911228	     34.14582845	     -5.32366608	     -7.19733220	     59.49598092	     59.49598092	      2.90352880	    -15.63414510	      2.18545611	     11.64111142	     -5.42711162	    -10.87307090	     18.31745226	     18.31745226	     12.01583314	    -11.59576830	     -3.23444153	    -11.87421295	      5.21284701	      1.74185596	     -4.42924342	    -13.53437232	     -4.19156621	     31.41775233	     44.84308706	      0.00000000	      0.00000000	     12.07709906	    -16.45144357	     -5.05440374	     66.35141737	     45.50570978	      0.00000000	      0.00000000
      4.09928571	     -4.49816652	     -3.93962611	     -6.54502424	      0.90242410	      0.93409667	      0.47894848	     34.48336038	     -5.02994378	     -7.38252520	     56.37806526	     56.37806526	      2.73237069	    -14.97375778	      2.44664155	     10.65183506	     -5.31708984	    -11.15856916	     17.63091632	     17.63091632	     12.29321047	    -11.21820542	     -3.39157737	    -12.06114380	      5.34211739	      2.06342239	     -6.02870901	    -13.66723502	     -4.19380787	     29.87946239	     44.91695830	      0.00000000	      0.00000000	     13.12106555	    -16.68520531	     -5.50244014	     68.30703642	     45.60542353	      0.00000000	      0.00000000
      4.11114286	     -4.51776025	     -3.89984675	     -6.71872517	      0.90172437	      0.93398584	      0.47889639	     34.71948541	     -4.81294047	     -7.71012269	     52.89348037	     52.89348037	      2.12207108	    -14.27407311	      1.80141693	      9.78838014	     -5.21581255	    -11.67000210	     17.01547549	     17.01547549	     12.32361392	    -10.70568962	     -4.28354214	    -12.14407011	      5.37173577	      1.42995602	     -6.26140216	    -13.48793360	     -4.72323195	     26.48302749	     45.20702643	      0.00000000	      0.00000000	     12.73652107	    -17.44219799	     -6.57439973	     72.45497043	     45.90256344	      0.00000000	      0.00000000
      4.12300000	     -4.50405602	     -3.84131841	     -6.87533407	      0.90111504	      0.93381320	      0.47894785	     34.75768753	     -4.59178396	     -8.06891290	     49.11138309	     49.11138309	      1.84210681	    -13.14942376	      1.99938400	      8.88083456	     -5.05479608	    -11.99678361	     16.39478011	     16.39478011	     12.57719200	    -10.27732100	     -4.45506118	    -12.26839113	      5.40912508	      1.79676728	     -7.87248146	    -13.56148888	     -4.79787480	     25.41136709	     45.27059329	      0.00000000	      0.00000000	     13.77747665	    -17.47824328	     -7.10138354	     74.39653152	     46.00991183	      0.00000000	      0.00000000
